<svg xmlns="http://www.w3.org/2000/svg" viewBox="0 0 64 80" x="0px" y="0px"><g><path d="M7,7V61a1,1,0,0,0,1,1H56a1,1,0,0,0,1-1V7a1,1,0,0,0-1-1H45V8H55V60H9V8H19V6H8A1,1,0,0,0,7,7Z"/><path d="M39.133,2H24.867A3.872,3.872,0,0,0,21,5.867V8.133A3.872,3.872,0,0,0,24.867,12H39.133A3.872,3.872,0,0,0,43,8.133V5.867A3.872,3.872,0,0,0,39.133,2ZM41,8.133A1.868,1.868,0,0,1,39.133,10H24.867A1.868,1.868,0,0,1,23,8.133V5.867A1.868,1.868,0,0,1,24.867,4H39.133A1.868,1.868,0,0,1,41,5.867Z"/><path d="M12,11V55a1,1,0,0,0,1,1H51a1,1,0,0,0,1-1V11H50V54H14V11Z"/><path d="M19,23a6,6,0,1,0,6-6A6.006,6.006,0,0,0,19,23Zm7-3.858A4,4,0,0,1,28.858,22H26Zm-2,0V23a1,1,0,0,0,1,1h3.858A3.992,3.992,0,1,1,24,19.142Z"/><rect x="20" y="33" width="9" height="2"/><rect x="20" y="37" width="9" height="2"/><rect x="20" y="41" width="9" height="2"/><rect x="39" y="15" width="3" height="2"/><rect x="39" y="19" width="6" height="2"/><path d="M37,34h4a1,1,0,0,0,1-1V29a1,1,0,0,0-1-1H37a1,1,0,0,0-1,1v4A1,1,0,0,0,37,34Zm1-4h2v2H38Z"/><path d="M36,41a1,1,0,0,0,1,1h4a1,1,0,0,0,1-1V37a1,1,0,0,0-1-1H37a1,1,0,0,0-1,1Zm2-3h2v2H38Z"/><path d="M36,49a1,1,0,0,0,1,1h4a1,1,0,0,0,1-1V45a1,1,0,0,0-1-1H37a1,1,0,0,0-1,1Zm2-3h2v2H38Z"/><rect x="44" y="30" width="4" height="2"/><rect x="44" y="38" width="4" height="2"/><rect x="44" y="46" width="4" height="2"/></g><text x="0" y="79" fill="#000000" font-size="5px" font-weight="bold" font-family="'Helvetica Neue', Helvetica, Arial-Unicode, Arial, Sans-serif">Created by pongsakorn</text><text x="0" y="84" fill="#000000" font-size="5px" font-weight="bold" font-family="'Helvetica Neue', Helvetica, Arial-Unicode, Arial, Sans-serif">from the Noun Project</text></svg>